<?xml version="1.0" encoding="UTF-8" ?>
<svg version="1.1" width="128" height="64" xmlns="http://www.w3.org/2000/svg" shape-rendering="crispEdges">
<rect x="4" y="2" width="40" height="4" fill="#595652" />
<rect x="4" y="6" width="4" height="56" fill="#595652" />
<rect x="8" y="6" width="32" height="6" fill="#FBF236" />
<rect x="40" y="6" width="4" height="56" fill="#595652" />
<rect x="8" y="12" width="6" height="46" fill="#FBF236" />
<rect x="14" y="12" width="20" height="4" fill="#000000" />
<rect x="34" y="12" width="6" height="30" fill="#FBF236" />
<rect x="14" y="16" width="20" height="10" fill="#FBF236" />
<rect x="54" y="18" width="4" height="14" fill="#3F3F74" />
<rect x="64" y="18" width="4" height="14" fill="#3F3F74" />
<rect x="72" y="18" width="12" height="2" fill="#3F3F74" />
<rect x="88" y="18" width="4" height="14" fill="#3F3F74" />
<rect x="98" y="18" width="4" height="14" fill="#3F3F74" />
<rect x="108" y="18" width="8" height="2" fill="#3F3F74" />
<rect x="58" y="20" width="2" height="4" fill="#3F3F74" />
<rect x="62" y="20" width="2" height="4" fill="#3F3F74" />
<rect x="72" y="20" width="4" height="12" fill="#3F3F74" />
<rect x="80" y="20" width="4" height="2" fill="#3F3F74" />
<rect x="92" y="20" width="2" height="4" fill="#3F3F74" />
<rect x="96" y="20" width="2" height="4" fill="#3F3F74" />
<rect x="106" y="20" width="4" height="10" fill="#3F3F74" />
<rect x="114" y="20" width="4" height="10" fill="#3F3F74" />
<rect x="60" y="24" width="2" height="4" fill="#3F3F74" />
<rect x="76" y="24" width="4" height="2" fill="#3F3F74" />
<rect x="94" y="24" width="2" height="4" fill="#3F3F74" />
<rect x="14" y="26" width="14" height="4" fill="#000000" />
<rect x="28" y="26" width="6" height="16" fill="#FBF236" />
<rect x="80" y="28" width="4" height="4" fill="#3F3F74" />
<rect x="14" y="30" width="14" height="12" fill="#FBF236" />
<rect x="76" y="30" width="4" height="2" fill="#3F3F74" />
<rect x="108" y="30" width="8" height="2" fill="#3F3F74" />
<rect x="14" y="42" width="20" height="4" fill="#000000" />
<rect x="34" y="42" width="2" height="16" fill="#FBF236" />
<rect x="36" y="42" width="4" height="18" fill="#5FCDE4" />
<rect x="56" y="42" width="10" height="2" fill="#3F3F74" />
<rect x="72" y="42" width="10" height="2" fill="#3F3F74" />
<rect x="88" y="42" width="10" height="2" fill="#3F3F74" />
<rect x="54" y="44" width="4" height="12" fill="#3F3F74" />
<rect x="64" y="44" width="4" height="12" fill="#3F3F74" />
<rect x="72" y="44" width="4" height="12" fill="#3F3F74" />
<rect x="80" y="44" width="4" height="4" fill="#3F3F74" />
<rect x="88" y="44" width="4" height="12" fill="#3F3F74" />
<rect x="96" y="44" width="4" height="4" fill="#3F3F74" />
<rect x="14" y="46" width="20" height="12" fill="#FBF236" />
<rect x="58" y="48" width="6" height="2" fill="#3F3F74" />
<rect x="76" y="48" width="6" height="2" fill="#3F3F74" />
<rect x="92" y="48" width="6" height="2" fill="#3F3F74" />
<rect x="8" y="58" width="28" height="4" fill="#595652" />
<rect x="36" y="60" width="4" height="2" fill="#595652" />
</svg>